<svg width="145" height="31" viewBox="0 0 145 31" fill="none" xmlns="http://www.w3.org/2000/svg">
<path d="M138.821 0.277219C138.635 0.277488 138.452 0.328646 138.292 0.425239C138.133 0.521832 138.002 0.660239 137.914 0.825704H137.912L130.73 14.2504L130.732 14.2525C130.635 14.413 130.584 14.597 130.583 14.7848C130.583 15.0596 130.691 15.3232 130.884 15.5175C131.078 15.7118 131.339 15.821 131.613 15.821H135.732V26.1835C135.732 26.4584 135.84 26.7219 136.033 26.9163C136.227 27.1106 136.488 27.2198 136.762 27.2198C136.952 27.2196 137.138 27.1666 137.3 27.0666C137.461 26.9666 137.593 26.8235 137.679 26.6531H137.681L144.903 13.1514L144.899 13.1454C144.961 13.0126 145 12.8684 145 12.7122C145 12.1402 144.539 11.676 143.97 11.676H139.851V1.31347C139.851 1.03864 139.743 0.775065 139.549 0.58073C139.356 0.386395 139.094 0.277219 138.821 0.277219Z" fill="white"/>
<path d="M16.9699 7.66243C17.5791 7.66243 18.0723 7.86676 18.4494 8.27542C18.8555 8.68409 19.0586 9.18032 19.0586 9.76413V21.411C19.0586 24.4468 18.2173 26.8112 16.5348 28.5042C14.8813 30.1681 12.5317 31 9.48577 31C6.46889 31 4.13371 30.1681 2.48022 28.5042C0.826741 26.8112 0 24.4468 0 21.411V9.76413C0 9.18032 0.188555 8.68409 0.565665 8.27542C0.971783 7.86676 1.46493 7.66243 2.0451 7.66243C2.65427 7.66243 3.14742 7.86676 3.52453 8.27542C3.93065 8.68409 4.13371 9.18032 4.13371 9.76413V21.411C4.13371 25.2349 5.91773 27.1469 9.48577 27.1469C11.2553 27.1469 12.6042 26.6653 13.5324 25.702C14.4607 24.7387 14.9249 23.3084 14.9249 21.411V9.76413C14.9249 9.18032 15.1134 8.68409 15.4905 8.27542C15.8966 7.86676 16.3898 7.66243 16.9699 7.66243Z" fill="white"/>
<path d="M49.9125 7.13701C55.134 7.13701 57.7447 10.2896 57.7447 16.5946V28.5042C57.7447 29.088 57.5417 29.5843 57.1356 29.9929C56.7584 30.4016 56.2653 30.6059 55.6561 30.6059C55.076 30.6059 54.5828 30.4016 54.1767 29.9929C53.7996 29.5843 53.611 29.088 53.611 28.5042V16.6384C53.611 14.9162 53.2194 13.5443 52.4362 12.5226C51.653 11.5009 50.3766 10.9901 48.6071 10.9901C47.4467 10.9901 46.3879 11.2528 45.4306 11.7783C44.5024 12.2745 43.7627 12.9605 43.2115 13.8362C42.6893 14.6827 42.4283 15.6168 42.4283 16.6384V28.5042C42.4283 29.088 42.2252 29.5843 41.8191 29.9929C41.442 30.4016 40.9488 30.6059 40.3397 30.6059C39.7305 30.6059 39.2373 30.4162 38.8602 30.0367C38.4831 29.6281 38.2946 29.1172 38.2946 28.5042V9.76413C38.2946 9.18032 38.4831 8.68409 38.8602 8.27542C39.2663 7.86676 39.7595 7.66243 40.3397 7.66243C40.9488 7.66243 41.442 7.86676 41.8191 8.27542C42.2252 8.68409 42.4283 9.18032 42.4283 9.76413V11.2966C43.1825 10.129 44.2268 9.15113 45.5612 8.363C46.9246 7.54567 48.375 7.13701 49.9125 7.13701Z" fill="white"/>
<path d="M80.8877 28.5042C80.8877 29.088 80.6846 29.5843 80.2785 29.9929C79.9014 30.4016 79.4083 30.6059 78.7991 30.6059C78.2189 30.6059 77.7258 30.4016 77.3197 29.9929C76.9426 29.5843 76.754 29.088 76.754 28.5042V9.5452C76.754 8.96139 76.9426 8.46516 77.3197 8.0565C77.7258 7.64783 78.2189 7.4435 78.7991 7.4435C79.4083 7.4435 79.9014 7.64783 80.2785 8.0565C80.6846 8.46516 80.8877 8.96139 80.8877 9.5452V28.5042ZM78.7991 4.55367C77.9578 4.55367 77.3487 4.40772 76.9716 4.11582C76.6235 3.79473 76.4494 3.29849 76.4494 2.62712V1.92655C76.4494 1.22599 76.638 0.729757 77.0151 0.437855C77.4212 0.145952 78.0304 0 78.8426 0C79.6548 0 80.235 0.160547 80.5831 0.48164C80.9602 0.773542 81.1488 1.25518 81.1488 1.92655V2.62712C81.1488 3.32768 80.9602 3.82392 80.5831 4.11582C80.206 4.40772 79.6113 4.55367 78.7991 4.55367Z" fill="white"/>
<path d="M106.063 11.7345V24.7825C106.063 26.242 106.715 26.9718 108.021 26.9718C108.224 26.9718 108.499 26.928 108.847 26.8404C109.195 26.7236 109.471 26.6653 109.674 26.6653C110.051 26.6653 110.37 26.8258 110.631 27.1469C110.892 27.468 111.023 27.8766 111.023 28.3729C111.023 28.9859 110.675 29.5113 109.979 29.9492C109.282 30.387 108.499 30.6059 107.629 30.6059C106.672 30.6059 105.787 30.5038 104.975 30.2994C104.191 30.0951 103.481 29.5843 102.843 28.767C102.233 27.9204 101.929 26.6507 101.929 24.9576V11.7345H99.4051C98.8539 11.7345 98.3898 11.5593 98.0127 11.209C97.6646 10.8296 97.4905 10.3625 97.4905 9.80791C97.4905 9.2533 97.6646 8.80085 98.0127 8.45057C98.3898 8.10028 98.8539 7.92514 99.4051 7.92514H101.929V4.24718C101.929 3.66337 102.117 3.16714 102.494 2.75848C102.901 2.34981 103.408 2.14548 104.017 2.14548C104.598 2.14548 105.076 2.34981 105.453 2.75848C105.859 3.16714 106.063 3.66337 106.063 4.24718V7.92514H109.674C110.225 7.92514 110.675 8.11488 111.023 8.49435C111.4 8.84464 111.589 9.29708 111.589 9.8517C111.589 10.4063 111.4 10.8588 111.023 11.209C110.675 11.5593 110.225 11.7345 109.674 11.7345H106.063Z" fill="white"/>
</svg>
