<svg width="145" height="31" viewBox="0 0 145 31" fill="none" xmlns="http://www.w3.org/2000/svg">
<path d="M131.358 1.94873C131.182 1.94898 131.009 1.99709 130.857 2.08792C130.706 2.17875 130.583 2.3089 130.5 2.4645H130.498L123.701 15.0884L123.703 15.0903C123.612 15.2413 123.563 15.4143 123.562 15.5908C123.562 15.8493 123.665 16.0971 123.848 16.2799C124.031 16.4626 124.278 16.5653 124.537 16.5653H128.435V26.3096C128.435 26.5681 128.537 26.8159 128.72 26.9987C128.903 27.1814 129.151 27.2841 129.409 27.2841C129.589 27.2839 129.765 27.2341 129.918 27.14C130.071 27.046 130.196 26.9114 130.277 26.7512H130.279L137.113 14.055L137.109 14.0492C137.168 13.9244 137.205 13.7888 137.205 13.642C137.205 13.1041 136.768 12.6675 136.23 12.6675H132.332V2.92317C132.332 2.66473 132.23 2.41688 132.047 2.23414C131.864 2.05139 131.616 1.94873 131.358 1.94873Z" fill="url(#paint0_linear)"/>
<path d="M16.0576 8.89333C16.634 8.89333 17.1007 9.08547 17.4575 9.46975C17.8418 9.85404 18.0339 10.3207 18.0339 10.8696V21.8218C18.0339 24.6765 17.2379 26.8998 15.6459 28.4918C14.0813 30.0564 11.8579 30.8387 8.97579 30.8387C6.12111 30.8387 3.91147 30.0564 2.34688 28.4918C0.782294 26.8998 0 24.6765 0 21.8218V10.8696C0 10.3207 0.178418 9.85404 0.535254 9.46975C0.919539 9.08547 1.38617 8.89333 1.93515 8.89333C2.51158 8.89333 2.97821 9.08547 3.33504 9.46975C3.71933 9.85404 3.91147 10.3207 3.91147 10.8696V21.8218C3.91147 25.4176 5.59958 27.2155 8.97579 27.2155C10.6502 27.2155 11.9266 26.7626 12.8049 25.8568C13.6833 24.9509 14.1225 23.6059 14.1225 21.8218V10.8696C14.1225 10.3207 14.3009 9.85404 14.6577 9.46975C15.042 9.08547 15.5086 8.89333 16.0576 8.89333Z" fill="#3B3B4D"/>
<path d="M47.2291 8.39925C52.1699 8.39925 54.6403 11.3637 54.6403 17.2927V28.4918C54.6403 29.0408 54.4481 29.5075 54.0638 29.8917C53.707 30.276 53.2404 30.4682 52.6639 30.4682C52.115 30.4682 51.6483 30.276 51.2641 29.8917C50.9072 29.5075 50.7288 29.0408 50.7288 28.4918V17.3339C50.7288 15.7144 50.3582 14.4243 49.6171 13.4636C48.876 12.5029 47.6682 12.0225 45.9939 12.0225C44.8959 12.0225 43.894 12.2695 42.9882 12.7636C42.1098 13.2303 41.4099 13.8753 40.8884 14.6988C40.3943 15.4948 40.1472 16.3732 40.1472 17.3339V28.4918C40.1472 29.0408 39.9551 29.5075 39.5708 29.8917C39.214 30.276 38.7473 30.4682 38.1709 30.4682C37.5945 30.4682 37.1279 30.2898 36.771 29.9329C36.4142 29.5486 36.2358 29.0683 36.2358 28.4918V10.8696C36.2358 10.3207 36.4142 9.85404 36.771 9.46975C37.1553 9.08547 37.6219 8.89333 38.1709 8.89333C38.7473 8.89333 39.214 9.08547 39.5708 9.46975C39.9551 9.85404 40.1472 10.3207 40.1472 10.8696V12.3107C40.8609 11.2128 41.8491 10.2932 43.1117 9.5521C44.4018 8.78353 45.7743 8.39925 47.2291 8.39925Z" fill="#3B3B4D"/>
<path d="M76.539 28.4918C76.539 29.0408 76.3469 29.5075 75.9626 29.8917C75.6058 30.276 75.1391 30.4682 74.5627 30.4682C74.0137 30.4682 73.5471 30.276 73.1628 29.8917C72.806 29.5075 72.6276 29.0408 72.6276 28.4918V10.6638C72.6276 10.1148 72.806 9.64817 73.1628 9.26389C73.5471 8.8796 74.0137 8.68746 74.5627 8.68746C75.1391 8.68746 75.6058 8.8796 75.9626 9.26389C76.3469 9.64817 76.539 10.1148 76.539 10.6638V28.4918ZM74.5627 5.97002C73.7667 5.97002 73.1903 5.83278 72.8334 5.55829C72.504 5.25635 72.3393 4.78972 72.3393 4.15839V3.49962C72.3393 2.84084 72.5178 2.37421 72.8746 2.09972C73.2589 1.82523 73.8353 1.68799 74.6039 1.68799C75.3725 1.68799 75.9214 1.83896 76.2508 2.1409C76.6077 2.41539 76.7861 2.86829 76.7861 3.49962V4.15839C76.7861 4.81717 76.6077 5.2838 76.2508 5.55829C75.894 5.83278 75.3313 5.97002 74.5627 5.97002Z" fill="#3B3B4D"/>
<path d="M100.36 12.7225V24.9921C100.36 26.3646 100.978 27.0508 102.213 27.0508C102.405 27.0508 102.666 27.0096 102.995 26.9273C103.325 26.8175 103.586 26.7626 103.778 26.7626C104.135 26.7626 104.437 26.9135 104.684 27.2155C104.931 27.5174 105.054 27.9017 105.054 28.3683C105.054 28.9448 104.725 29.4388 104.066 29.8506C103.407 30.2623 102.666 30.4682 101.843 30.4682C100.937 30.4682 100.1 30.3721 99.3311 30.18C98.5899 29.9878 97.9174 29.5075 97.3136 28.7389C96.7371 27.9429 96.4489 26.7488 96.4489 25.1568V12.7225H94.0609C93.5393 12.7225 93.1002 12.5578 92.7433 12.2284C92.4139 11.8715 92.2492 11.4324 92.2492 10.9108C92.2492 10.3893 92.4139 9.96384 92.7433 9.63445C93.1002 9.30506 93.5393 9.14037 94.0609 9.14037H96.4489V5.6818C96.4489 5.13283 96.6273 4.6662 96.9842 4.28191C97.3685 3.89763 97.8488 3.70548 98.4252 3.70548C98.9742 3.70548 99.4271 3.89763 99.784 4.28191C100.168 4.6662 100.36 5.13283 100.36 5.6818V9.14037H103.778C104.299 9.14037 104.725 9.31879 105.054 9.67562C105.411 10.005 105.589 10.4305 105.589 10.952C105.589 11.4735 105.411 11.899 105.054 12.2284C104.725 12.5578 104.299 12.7225 103.778 12.7225H100.36Z" fill="#3B3B4D"/>
<defs>
<linearGradient id="paint0_linear" x1="130.384" y1="1.94873" x2="130.384" y2="27.2841" gradientUnits="userSpaceOnUse">
<stop stop-color="#FA5538"/>
<stop offset="1" stop-color="#FA3252"/>
</linearGradient>
</defs>
</svg>
